PathFileType	4	(X/Y/Z)	pose2sim_0-1073.trc
DataRate	CameraRate	NumFrames	NumMarkers	Units	OrigDataRate	OrigDataStartFrame	OrigNumFrames
50	50	8	22	m	50	0	1074
Frame#	Time	Hip			RHip			RKnee			RAnkle			RBigToe			RSmallToe			RHeel			LHip			LKnee			LAnkle			LBigToe			LSmallToe			LHeel			Neck			Head			Nose			RShoulder			RElbow			RWrist			LShoulder			LElbow			LWrist			
		X1	Y1	Z1	X2	Y2	Z2	X3	Y3	Z3	X4	Y4	Z4	X5	Y5	Z5	X6	Y6	Z6	X7	Y7	Z7	X8	Y8	Z8	X9	Y9	Z9	X10	Y10	Z10	X11	Y11	Z11	X12	Y12	Z12	X13	Y13	Z13	X14	Y14	Z14	X15	Y15	Z15	X16	Y16	Z16	X17	Y17	Z17	X18	Y18	Z18	X19	Y19	Z19	X20	Y20	Z20	X21	Y21	Z21	X22	Y22	Z22	
0	0.0	0.10169752874005444	0.8406304327081351	-0.03377038679999899	0.004810774754595246	0.8230610818560089	-0.030641804612431458	-0.012926054199340327	0.43654289839631677	-0.06595352440193483	-0.042446002203502885	0.07755408780614775	-0.10798291947191063	-0.07576475391116166	0.03977774457480293	0.07283830323571452	-0.11654769123292895	0.040546745097947715	0.017209393802043664	-0.036502711709145964	0.03424832285562563	-0.14592879475845563	0.201284232016274	0.8179795663726929	-0.033578137992999454	0.21926374887060918	0.43895134571615074	-0.08250285996363944	0.24873470749621318	0.08013098007387665	-0.11446227036510039	0.26333481611894477	0.03505158277006982	0.05937938987642605	0.2956710154052143	0.03233401290245398	0.012705840156580554	0.2396017178959222	0.0364132341927403	-0.15006048578709313	0.11355462476587605	1.4254501114128904	-0.03062264081953604	0.12171062262708933	1.6602165575162315	-0.013104351508980474	0.12181962165078032	1.552208759907535	0.077715158633253	-0.07015072978019316	1.317998468255923	-0.04299932068580927	-0.14300237615972877	1.0477647535943924	-0.04267664446935738	-0.187943500388535	0.8235743532518077	0.0032249550675051203	0.29092208182285034	1.3184662791236548	-0.05679639642048222	0.34884908490486993	1.0422305721002736	-0.07112820834745305	0.38893308789442943	0.814766025979304	-0.05675039605277564
1	0.02	0.100814425821767	0.8335072479187288	-0.04506621251021996	-0.0025517236848196716	0.8226938043249714	-0.04273494264728026	-0.012138136751483368	0.4401406799719675	-0.06682147051263074	-0.04202216332565364	0.07197683432096298	-0.10128610468686278	-0.07722153306039396	0.03447502822959739	0.07098944531726502	-0.11881301685458903	0.03309746067160991	0.005252435441285631	-0.03434193673473931	0.03859856771888999	-0.14086274966978815	0.20516384553717246	0.821237747482875	-0.047453085527088226	0.22286932679897528	0.44009704181296	-0.08850173321978848	0.24630661742224189	0.07907780929943788	-0.1132341938247008	0.26329831352318467	0.035479807250188115	0.041897449562369474	0.30259589647139423	0.03921994605431706	-0.005823567707373868	0.24290075255273913	0.04122030679155427	-0.14776570156244562	0.11392263498630656	1.4237606606811921	-0.028929593727011548	0.12305588048784248	1.6589753468138673	-0.00987018647433478	0.12850213442137662	1.5466190492137615	0.09588403780151157	-0.06739207197401319	1.3177739978893381	-0.04101076654169502	-0.14137919104270458	1.0499218794508094	-0.03946538443796653	-0.18757940570743803	0.824986803490765	-0.002304490965044165	0.2850756158647553	1.3200829289643992	-0.05720992207229753	0.3467697356048992	1.0525047653826576	-0.07223245321817891	0.38741961185106377	0.81666166945034	-0.04218787150386297
2	0.04	0.10279001497992694	0.8328206853507787	-0.043119233570037475	-0.0016798413841582678	0.8233886440207812	-0.03935633948185321	-0.012512703549659186	0.44082510299266076	-0.06844629262886759	-0.04093194089227358	0.07250147410261737	-0.10425116299014694	-0.07980089950893574	0.03275487923129297	0.07253066695907157	-0.11974542871652653	0.03508733923670941	0.0003436542807296368	-0.03195740099252544	0.03761656607245162	-0.14273609188278857	0.20710405667655948	0.8205841407436101	-0.04451496562206275	0.22286429076818537	0.4405846017880916	-0.08322825392140377	0.24776870092703018	0.0778026601408263	-0.11150349119437868	0.26523966844820007	0.036899250719666966	0.0464284059583568	0.30414813260417184	0.04097143588842561	-0.0010769576707685019	0.24434640425819237	0.03986912867731353	-0.14621792508753695	0.11176297492086071	1.4238168708628278	-0.029903520460859555	0.12238597986592216	1.658560507872246	-0.007437548355711775	0.12388076031243467	1.5457921917050517	0.08261555404191587	-0.06762067476360398	1.31830008962839	-0.04591096574444019	-0.14138367526650575	1.0501807802399774	-0.04105184279667568	-0.18867450142359962	0.8245301625950555	-0.0005482182125501217	0.28500096888771737	1.3193115858099014	-0.05822186119871754	0.3452695156814069	1.0537708611822785	-0.07355943715657158	0.3898083609661141	0.8163218801422855	-0.04792549579428069
3	0.06	0.10207134605708881	0.8340862560233722	-0.042789982257378206	-0.0008541926987288594	0.8221519478935689	-0.04235690510638971	-0.011970603831994756	0.44100807250614416	-0.06990877453685687	-0.043339827776951084	0.07427354257127314	-0.10483062699445495	-0.08121888859738571	0.03295859270172911	0.07141404952089894	-0.11939291716330312	0.03423010500546231	-0.0005856524159806049	-0.03396384513062375	0.03939287357294315	-0.14378332090633325	0.20500522886527944	0.8208057536488699	-0.04771808844819566	0.22366351190427167	0.4409257052614325	-0.08518910585824936	0.24944648434500102	0.07951273173268687	-0.10995358451510229	0.2684665653308208	0.036045551762416764	0.04558589425529654	0.30496098950479666	0.04009842896705183	-0.002240937748414216	0.2432134098818192	0.04017286161273524	-0.14245780802577657	0.11233641264278872	1.4247388508966878	-0.03161036227888062	0.12282894554450562	1.6603687413201333	-0.009316665193324252	0.1282632964450076	1.545280810248196	0.08397580857050914	-0.06682296014293522	1.319219683026395	-0.041775406334636764	-0.14317134999707998	1.0514401677325995	-0.043388759038457	-0.18676808121154503	0.8232275866281635	-0.0038416502302924538	0.2856915347340455	1.3203061745841906	-0.05914850310350768	0.34719225243489465	1.0548469601479975	-0.0728284382194792	0.38906379211593883	0.8174787672915882	-0.04518753298454697
4	0.08	0.10190447152268754	0.838988234784297	-0.03215476177473278	0.0019641426304897545	0.823550411321163	-0.03158670168911375	-0.012311880893419164	0.43746348030509374	-0.06660800824561203	-0.043051175748854364	0.07652478895866172	-0.10700236017300965	-0.07602918586543672	0.04094856779021022	0.07607625528479584	-0.1159126075939328	0.04052868046548314	0.017781651520474236	-0.03477899560982784	0.03531554757197069	-0.1482288530058863	0.20285085612934167	0.8216219399367902	-0.03343216286264063	0.22059732904177445	0.4366780253436926	-0.08383957640796887	0.24740534654551377	0.07683734437093054	-0.11656558549557264	0.2633191022755425	0.03373308885593498	0.06466911338454312	0.29470224467586836	0.030983542795237174	0.016026026399441874	0.2385007349126993	0.03672122820477794	-0.1508057077116205	0.11612550445330307	1.4253870174174479	-0.029784914468973432	0.12092325095670323	1.6602246934923164	-0.014877696843397415	0.12005942513065415	1.5512448154160539	0.08336086330175141	-0.06960501312631659	1.3162287908586499	-0.043457555821595446	-0.14357353053136077	1.047209077439817	-0.0400117987132846	-0.1885548208887323	0.8220976383248991	0.000993656377476131	0.29118976583641465	1.3175514409310922	-0.05609695918722827	0.34911103334741617	1.0438804125434245	-0.07032128352944841	0.39034758114177315	0.8152161645233246	-0.04804658858943102
5	0.1	0.1012893345930694	0.836635375390766	-0.04906442947233973	-0.0019990202172657846	0.8258231149864608	-0.046200630931974324	-0.014260872134466342	0.4437500596083158	-0.07031800876912224	-0.043248646603054976	0.0716725177735407	-0.09785530213494359	-0.07914031955993221	0.034408353005111525	0.07210722896433225	-0.11935901459991573	0.03296978898782349	0.005472103253748525	-0.03539182769866676	0.035740127013325025	-0.14013647378501978	0.20720648735795782	0.8231414812933948	-0.049427944342404335	0.222902103911216	0.4423800662277789	-0.08581170891179755	0.24770979850818906	0.07602001128559385	-0.11343713568437308	0.26914383039984924	0.03488681613924964	0.047457402233687704	0.30471671410225426	0.039842340618135026	-0.0038660593743440686	0.24283506756710888	0.04073156998248985	-0.15038744478859148	0.11168282846833708	1.42515910114577	-0.03175998597311601	0.12214096134159577	1.657943340065364	-0.0035098551665298963	0.12739150701133464	1.544269405006454	0.1074724657847252	-0.06688527591977474	1.318052531784947	-0.043131266532553426	-0.1406845852938615	1.0490342386278877	-0.042774148853851286	-0.1871052853557251	0.8216815606381492	-0.0013203318781377206	0.28259976016283644	1.320378922615375	-0.06086272561260565	0.3482794413317534	1.0540456417971837	-0.07302531219357764	0.39025053103039736	0.8160488232114417	-0.045577487972414094
6	0.12	0.10163952311542472	0.8347540922373385	-0.04205817658967155	-0.0026451247083558505	0.8239518678848979	-0.039808576507619244	-0.010655553186010571	0.4415338108369085	-0.06921936064855669	-0.04198207107875968	0.07202577253229892	-0.10412565182691215	-0.07911741326003495	0.032367206434010455	0.07136311680966317	-0.1207233271197743	0.034894295938871986	0.00432367050843964	-0.034223068034150074	0.03878530188067178	-0.146292715259415	0.20737559045023815	0.8225727664921293	-0.048671274404180745	0.22312289716505954	0.4415853787232342	-0.08344337961309418	0.24812881210895527	0.0788656537191611	-0.10770906928715691	0.26598636622747185	0.036787836366987306	0.045388700575323335	0.30463922074834116	0.04052787288236357	-0.0015806023265822141	0.24446114659151222	0.04135545949421838	-0.1465074394655593	0.11351233651440898	1.423992866906209	-0.029682095254328144	0.12258244413161276	1.6596543405812696	-0.010690630333806118	0.12952366443478555	1.5445814926537016	0.08004676943700809	-0.0671648023114351	1.319647734450212	-0.043358279852308945	-0.14237536414790872	1.049182326924382	-0.04618786307221779	-0.18981736479006073	0.8225315031232665	-0.001217626479199154	0.2840114718864097	1.3195436284331388	-0.05713907831012219	0.346732516834424	1.052842088850855	-0.07240724726545522	0.3886220539430994	0.8155933128167412	-0.046220240899276684
7	0.14	0.10116452843829922	0.8348046437023393	-0.048234717059265235	-0.0018060540494446436	0.8251439136910826	-0.041992198517434624	-0.012816974986730638	0.442521988260963	-0.0685959735181823	-0.04313878463887489	0.07107972489686339	-0.09950004699215897	-0.07755610497261921	0.032489329171330975	0.07397742490337351	-0.118826567700858	0.03392911918753923	0.0012266824540555128	-0.03388917315006731	0.036470453590911625	-0.14265222221484877	0.20828175100695626	0.822495859695622	-0.05062441081158012	0.2240713871112708	0.4411944827697757	-0.08535090748554641	0.24776308081812465	0.0781649136555987	-0.1069751668371061	0.26611603482817536	0.03607178263832338	0.04724646653239527	0.30301187600499846	0.038627791761258724	-0.002161466436662321	0.24424426758603526	0.03901109697591136	-0.147568482408411	0.11292548022369957	1.4245190075931538	-0.028303970837346964	0.12065434845571425	1.6594285997633365	-0.006109428763032241	0.12396853981994818	1.544167296574168	0.09933358543708778	-0.06528869075282663	1.3175896774261697	-0.04166870539713795	-0.1415441324608799	1.0518998540514841	-0.04163697474471408	-0.18652415712852774	0.823756792620662	-0.0023601505770654138	0.2849523451253878	1.3201792972895054	-0.06031899860754985	0.34645765478140106	1.0530235343942578	-0.07323363686383018	0.38838546943259794	0.8156399260429272	-0.04752665600132509
